<mxfile host="app.diagrams.net" modified="2022-10-11T08:19:43.435Z" agent="5.0 (Windows NT 10.0; Win64; x64) AppleWebKit/537.36 (KHTML, like Gecko) Chrome/106.0.0.0 Safari/537.36 Edg/106.0.1370.37" etag="zEdqFt6xd2fMFAXGD1at" version="20.4.0" type="github">
  <diagram id="B1prIBq7vLnyyEg8FFDx" name="第 1 页">
    <mxGraphModel dx="1038" dy="1716" grid="1" gridSize="10" guides="1" tooltips="1" connect="1" arrows="1" fold="1" page="1" pageScale="1" pageWidth="827" pageHeight="1169" math="0" shadow="0">
      <root>
        <mxCell id="0" />
        <mxCell id="1" parent="0" />
        <mxCell id="JVBzALuw_3yvz0hgOkPb-7" value="根据当前用户选择的是行政区划还是经济组织来渲染" style="edgeStyle=orthogonalEdgeStyle;rounded=0;orthogonalLoop=1;jettySize=auto;html=1;" parent="1" source="JVBzALuw_3yvz0hgOkPb-5" target="JVBzALuw_3yvz0hgOkPb-6" edge="1">
          <mxGeometry relative="1" as="geometry" />
        </mxCell>
        <mxCell id="JVBzALuw_3yvz0hgOkPb-5" value="登录" style="rounded=0;whiteSpace=wrap;html=1;" parent="1" vertex="1">
          <mxGeometry x="220" y="250" width="100" height="40" as="geometry" />
        </mxCell>
        <mxCell id="JVBzALuw_3yvz0hgOkPb-9" value="" style="edgeStyle=orthogonalEdgeStyle;rounded=0;orthogonalLoop=1;jettySize=auto;html=1;" parent="1" source="JVBzALuw_3yvz0hgOkPb-6" target="JVBzALuw_3yvz0hgOkPb-8" edge="1">
          <mxGeometry relative="1" as="geometry" />
        </mxCell>
        <mxCell id="JVBzALuw_3yvz0hgOkPb-10" value="点击菜单" style="edgeLabel;html=1;align=center;verticalAlign=middle;resizable=0;points=[];" parent="JVBzALuw_3yvz0hgOkPb-9" vertex="1" connectable="0">
          <mxGeometry x="-0.24" y="-1" relative="1" as="geometry">
            <mxPoint x="10" y="-1" as="offset" />
          </mxGeometry>
        </mxCell>
        <mxCell id="JVBzALuw_3yvz0hgOkPb-6" value="财务菜单列表" style="rounded=0;whiteSpace=wrap;html=1;" parent="1" vertex="1">
          <mxGeometry x="220" y="370" width="100" height="40" as="geometry" />
        </mxCell>
        <mxCell id="JVBzALuw_3yvz0hgOkPb-12" value="在页面上操作" style="edgeStyle=orthogonalEdgeStyle;rounded=0;orthogonalLoop=1;jettySize=auto;html=1;" parent="1" source="JVBzALuw_3yvz0hgOkPb-8" target="JVBzALuw_3yvz0hgOkPb-11" edge="1">
          <mxGeometry relative="1" as="geometry" />
        </mxCell>
        <mxCell id="JVBzALuw_3yvz0hgOkPb-8" value="iframe加载对应的页面" style="rounded=0;whiteSpace=wrap;html=1;" parent="1" vertex="1">
          <mxGeometry x="414" y="370" width="100" height="40" as="geometry" />
        </mxCell>
        <mxCell id="JVBzALuw_3yvz0hgOkPb-15" style="edgeStyle=orthogonalEdgeStyle;rounded=0;orthogonalLoop=1;jettySize=auto;html=1;exitX=1;exitY=0.25;exitDx=0;exitDy=0;entryX=0;entryY=0.25;entryDx=0;entryDy=0;" parent="1" source="JVBzALuw_3yvz0hgOkPb-11" target="JVBzALuw_3yvz0hgOkPb-13" edge="1">
          <mxGeometry relative="1" as="geometry" />
        </mxCell>
        <mxCell id="JVBzALuw_3yvz0hgOkPb-16" value="自动带上cookie" style="edgeLabel;html=1;align=center;verticalAlign=middle;resizable=0;points=[];" parent="JVBzALuw_3yvz0hgOkPb-15" vertex="1" connectable="0">
          <mxGeometry x="-0.1855" relative="1" as="geometry">
            <mxPoint x="8" as="offset" />
          </mxGeometry>
        </mxCell>
        <mxCell id="JVBzALuw_3yvz0hgOkPb-11" value="请求财务后端" style="rounded=0;whiteSpace=wrap;html=1;" parent="1" vertex="1">
          <mxGeometry x="414" y="480" width="100" height="40" as="geometry" />
        </mxCell>
        <mxCell id="JVBzALuw_3yvz0hgOkPb-19" style="edgeStyle=orthogonalEdgeStyle;rounded=0;orthogonalLoop=1;jettySize=auto;html=1;exitX=1;exitY=0.25;exitDx=0;exitDy=0;entryX=0;entryY=0.25;entryDx=0;entryDy=0;" parent="1" source="JVBzALuw_3yvz0hgOkPb-13" target="JVBzALuw_3yvz0hgOkPb-17" edge="1">
          <mxGeometry relative="1" as="geometry" />
        </mxCell>
        <mxCell id="JVBzALuw_3yvz0hgOkPb-20" value="用token请求鉴权接口" style="edgeLabel;html=1;align=center;verticalAlign=middle;resizable=0;points=[];" parent="JVBzALuw_3yvz0hgOkPb-19" vertex="1" connectable="0">
          <mxGeometry x="-0.6629" relative="1" as="geometry">
            <mxPoint x="84" as="offset" />
          </mxGeometry>
        </mxCell>
        <mxCell id="JVBzALuw_3yvz0hgOkPb-23" style="edgeStyle=orthogonalEdgeStyle;rounded=0;orthogonalLoop=1;jettySize=auto;html=1;exitX=0;exitY=0.75;exitDx=0;exitDy=0;entryX=1;entryY=0.75;entryDx=0;entryDy=0;" parent="1" source="JVBzALuw_3yvz0hgOkPb-13" target="JVBzALuw_3yvz0hgOkPb-11" edge="1">
          <mxGeometry relative="1" as="geometry" />
        </mxCell>
        <mxCell id="JVBzALuw_3yvz0hgOkPb-24" value="接口返回" style="edgeLabel;html=1;align=center;verticalAlign=middle;resizable=0;points=[];" parent="JVBzALuw_3yvz0hgOkPb-23" vertex="1" connectable="0">
          <mxGeometry x="0.306" y="4" relative="1" as="geometry">
            <mxPoint x="18" y="-4" as="offset" />
          </mxGeometry>
        </mxCell>
        <mxCell id="JVBzALuw_3yvz0hgOkPb-13" value="财务系统" style="rounded=0;whiteSpace=wrap;html=1;" parent="1" vertex="1">
          <mxGeometry x="700" y="480" width="100" height="40" as="geometry" />
        </mxCell>
        <mxCell id="JVBzALuw_3yvz0hgOkPb-21" style="edgeStyle=orthogonalEdgeStyle;rounded=0;orthogonalLoop=1;jettySize=auto;html=1;exitX=0;exitY=0.75;exitDx=0;exitDy=0;entryX=1;entryY=0.75;entryDx=0;entryDy=0;" parent="1" source="JVBzALuw_3yvz0hgOkPb-17" target="JVBzALuw_3yvz0hgOkPb-13" edge="1">
          <mxGeometry relative="1" as="geometry" />
        </mxCell>
        <mxCell id="JVBzALuw_3yvz0hgOkPb-22" value="返回鉴权结果,用户信息,当前经济组织&lt;br&gt;（需要iframe和主系统在一个域）" style="edgeLabel;html=1;align=center;verticalAlign=middle;resizable=0;points=[];" parent="JVBzALuw_3yvz0hgOkPb-21" vertex="1" connectable="0">
          <mxGeometry x="0.2635" y="1" relative="1" as="geometry">
            <mxPoint x="31" y="9" as="offset" />
          </mxGeometry>
        </mxCell>
        <mxCell id="JVBzALuw_3yvz0hgOkPb-17" value="主系统" style="rounded=0;whiteSpace=wrap;html=1;" parent="1" vertex="1">
          <mxGeometry x="1040" y="480" width="100" height="40" as="geometry" />
        </mxCell>
        <mxCell id="JVBzALuw_3yvz0hgOkPb-25" value="业务逻辑" style="edgeStyle=orthogonalEdgeStyle;rounded=0;orthogonalLoop=1;jettySize=auto;html=1;exitX=0.75;exitY=1;exitDx=0;exitDy=0;entryX=0.25;entryY=1;entryDx=0;entryDy=0;" parent="1" source="JVBzALuw_3yvz0hgOkPb-13" target="JVBzALuw_3yvz0hgOkPb-13" edge="1">
          <mxGeometry relative="1" as="geometry" />
        </mxCell>
        <mxCell id="JVBzALuw_3yvz0hgOkPb-26" value="" style="endArrow=none;dashed=1;html=1;dashPattern=1 3;strokeWidth=2;rounded=0;" parent="1" edge="1">
          <mxGeometry width="50" height="50" relative="1" as="geometry">
            <mxPoint x="370" y="630" as="sourcePoint" />
            <mxPoint x="370" y="170" as="targetPoint" />
          </mxGeometry>
        </mxCell>
        <mxCell id="JVBzALuw_3yvz0hgOkPb-27" value="主系统前端" style="text;html=1;align=center;verticalAlign=middle;resizable=0;points=[];autosize=1;strokeColor=none;fillColor=none;fontStyle=1;fontSize=15;" parent="1" vertex="1">
          <mxGeometry x="220" y="190" width="100" height="30" as="geometry" />
        </mxCell>
        <mxCell id="JVBzALuw_3yvz0hgOkPb-28" value="财务系统前端" style="text;html=1;align=center;verticalAlign=middle;resizable=0;points=[];autosize=1;strokeColor=none;fillColor=none;fontStyle=1;fontSize=15;" parent="1" vertex="1">
          <mxGeometry x="409" y="190" width="110" height="30" as="geometry" />
        </mxCell>
        <mxCell id="oQMWWtPVl8k3XsE6r9LV-1" value="财务系统后端" style="text;html=1;align=center;verticalAlign=middle;resizable=0;points=[];autosize=1;strokeColor=none;fillColor=none;fontStyle=1;fontSize=15;" vertex="1" parent="1">
          <mxGeometry x="695" y="190" width="110" height="30" as="geometry" />
        </mxCell>
        <mxCell id="oQMWWtPVl8k3XsE6r9LV-2" value="主系统后端" style="text;html=1;align=center;verticalAlign=middle;resizable=0;points=[];autosize=1;strokeColor=none;fillColor=none;fontStyle=1;fontSize=15;" vertex="1" parent="1">
          <mxGeometry x="1040" y="190" width="100" height="30" as="geometry" />
        </mxCell>
        <mxCell id="oQMWWtPVl8k3XsE6r9LV-8" style="edgeStyle=none;rounded=0;orthogonalLoop=1;jettySize=auto;html=1;exitX=0;exitY=0;exitDx=70;exitDy=80;exitPerimeter=0;entryX=0.444;entryY=-0.08;entryDx=0;entryDy=0;entryPerimeter=0;fontSize=15;" edge="1" parent="1" source="oQMWWtPVl8k3XsE6r9LV-4" target="JVBzALuw_3yvz0hgOkPb-27">
          <mxGeometry relative="1" as="geometry" />
        </mxCell>
        <mxCell id="oQMWWtPVl8k3XsE6r9LV-9" style="edgeStyle=none;rounded=0;orthogonalLoop=1;jettySize=auto;html=1;exitX=0;exitY=0;exitDx=70;exitDy=80;exitPerimeter=0;entryX=0.38;entryY=-0.027;entryDx=0;entryDy=0;entryPerimeter=0;fontSize=15;" edge="1" parent="1" source="oQMWWtPVl8k3XsE6r9LV-4" target="oQMWWtPVl8k3XsE6r9LV-2">
          <mxGeometry relative="1" as="geometry" />
        </mxCell>
        <mxCell id="oQMWWtPVl8k3XsE6r9LV-10" style="edgeStyle=none;rounded=0;orthogonalLoop=1;jettySize=auto;html=1;exitX=0;exitY=0;exitDx=70;exitDy=80;exitPerimeter=0;entryX=0.53;entryY=-0.03;entryDx=0;entryDy=0;entryPerimeter=0;fontSize=15;" edge="1" parent="1" source="oQMWWtPVl8k3XsE6r9LV-4" target="oQMWWtPVl8k3XsE6r9LV-5">
          <mxGeometry relative="1" as="geometry" />
        </mxCell>
        <mxCell id="oQMWWtPVl8k3XsE6r9LV-4" value="主系统nginx" style="shape=cube;whiteSpace=wrap;html=1;boundedLbl=1;backgroundOutline=1;darkOpacity=0.05;darkOpacity2=0.1;fontSize=15;" vertex="1" parent="1">
          <mxGeometry x="620" y="-140" width="120" height="80" as="geometry" />
        </mxCell>
        <mxCell id="oQMWWtPVl8k3XsE6r9LV-6" style="rounded=0;orthogonalLoop=1;jettySize=auto;html=1;exitX=0;exitY=0;exitDx=70;exitDy=80;exitPerimeter=0;fontSize=15;" edge="1" parent="1" source="oQMWWtPVl8k3XsE6r9LV-5" target="JVBzALuw_3yvz0hgOkPb-28">
          <mxGeometry relative="1" as="geometry" />
        </mxCell>
        <mxCell id="oQMWWtPVl8k3XsE6r9LV-7" style="edgeStyle=none;rounded=0;orthogonalLoop=1;jettySize=auto;html=1;exitX=0;exitY=0;exitDx=70;exitDy=80;exitPerimeter=0;fontSize=15;" edge="1" parent="1" source="oQMWWtPVl8k3XsE6r9LV-5" target="oQMWWtPVl8k3XsE6r9LV-1">
          <mxGeometry relative="1" as="geometry" />
        </mxCell>
        <mxCell id="oQMWWtPVl8k3XsE6r9LV-5" value="财务系统nginx" style="shape=cube;whiteSpace=wrap;html=1;boundedLbl=1;backgroundOutline=1;darkOpacity=0.05;darkOpacity2=0.1;fontSize=15;" vertex="1" parent="1">
          <mxGeometry x="620" y="30" width="120" height="80" as="geometry" />
        </mxCell>
      </root>
    </mxGraphModel>
  </diagram>
</mxfile>
